<svg width="16" height="17" viewBox="0 0 16 17" fill="none" xmlns="http://www.w3.org/2000/svg">
<path d="M14.2857 0.456543H1.71429C0.767857 0.456543 0 1.2244 0 2.17083V14.7423C0 15.6887 0.767857 16.4565 1.71429 16.4565H14.2857C15.2321 16.4565 16 15.6887 16 14.7423V2.17083C16 1.2244 15.2321 0.456543 14.2857 0.456543ZM9.90357 14.1601C9.60357 14.2137 9.49286 14.028 9.49286 13.8744C9.49286 13.6815 9.5 12.6958 9.5 11.8994C9.5 11.3423 9.31429 10.9887 9.09643 10.803C10.4179 10.6565 11.8107 10.4744 11.8107 8.19226C11.8107 7.54226 11.5786 7.21726 11.2 6.7994C11.2607 6.64583 11.4643 6.01369 11.1393 5.19226C10.6429 5.03869 9.50714 5.83154 9.50714 5.83154C9.03572 5.6994 8.525 5.63154 8.02143 5.63154C7.51786 5.63154 7.00714 5.6994 6.53571 5.83154C6.53571 5.83154 5.4 5.03869 4.90357 5.19226C4.57857 6.01011 4.77857 6.64226 4.84286 6.7994C4.46429 7.21726 4.28571 7.54226 4.28571 8.19226C4.28571 10.4637 5.61786 10.6565 6.93929 10.803C6.76786 10.9565 6.61429 11.2208 6.56071 11.5994C6.22143 11.753 5.35357 12.0173 4.83571 11.103C4.51071 10.5387 3.925 10.4923 3.925 10.4923C3.34643 10.4851 3.88571 10.8565 3.88571 10.8565C4.27143 11.0351 4.54286 11.7208 4.54286 11.7208C4.88929 12.7815 6.54643 12.4244 6.54643 12.4244C6.54643 12.9208 6.55357 13.728 6.55357 13.8744C6.55357 14.028 6.44643 14.2137 6.14286 14.1601C3.78571 13.3708 2.13571 11.128 2.13571 8.50654C2.13571 5.22797 4.64286 2.73869 7.92143 2.73869C11.2 2.73869 13.8571 5.22797 13.8571 8.50654C13.8607 11.128 12.2607 13.3744 9.90357 14.1601ZM6.4 11.978C6.33214 11.9923 6.26786 11.9637 6.26071 11.9173C6.25357 11.8637 6.3 11.8173 6.36786 11.803C6.43571 11.7958 6.5 11.8244 6.50714 11.8708C6.51786 11.9173 6.47143 11.9637 6.4 11.978ZM6.06071 11.9458C6.06071 11.9923 6.00714 12.0315 5.93571 12.0315C5.85714 12.0387 5.80357 11.9994 5.80357 11.9458C5.80357 11.8994 5.85714 11.8601 5.92857 11.8601C5.99643 11.853 6.06071 11.8923 6.06071 11.9458ZM5.57143 11.9065C5.55714 11.953 5.48571 11.9744 5.425 11.953C5.35714 11.9387 5.31071 11.8851 5.325 11.8387C5.33929 11.7923 5.41071 11.7708 5.47143 11.7851C5.54286 11.8065 5.58929 11.8601 5.57143 11.9065ZM5.13214 11.7137C5.1 11.753 5.03214 11.7458 4.97857 11.6923C4.925 11.6458 4.91071 11.578 4.94643 11.5458C4.97857 11.5065 5.04643 11.5137 5.1 11.5673C5.14643 11.6137 5.16429 11.6851 5.13214 11.7137ZM4.80714 11.3887C4.775 11.4101 4.71429 11.3887 4.675 11.3351C4.63571 11.2815 4.63571 11.2208 4.675 11.1958C4.71429 11.1637 4.775 11.1887 4.80714 11.2423C4.84643 11.2958 4.84643 11.3601 4.80714 11.3887ZM4.575 11.0423C4.54286 11.0744 4.48929 11.0565 4.45 11.0208C4.41071 10.9744 4.40357 10.9208 4.43571 10.8958C4.46786 10.8637 4.52143 10.8815 4.56071 10.9173C4.6 10.9637 4.60714 11.0173 4.575 11.0423ZM4.33571 10.778C4.32143 10.8101 4.275 10.8173 4.23571 10.7923C4.18929 10.7708 4.16786 10.7315 4.18214 10.6994C4.19643 10.678 4.23571 10.6673 4.28214 10.6851C4.32857 10.7101 4.35 10.7494 4.33571 10.778Z" fill="#B4B4B4"/>
</svg>
