<svg width="16" height="17" viewBox="0 0 16 17" fill="none" xmlns="http://www.w3.org/2000/svg">
<path d="M1.96429 14.1708V14.6708H2.46429H4.83571H4.83929H5.33929V14.1708V6.53511V6.03511H4.83929H2.46429H1.96429V6.53511V14.1708ZM13.725 14.6708H14.225V14.1708V9.98511C14.225 8.94523 14.1177 7.90904 13.6247 7.12733C13.0985 6.29291 12.2021 5.84583 10.8786 5.84583C10.165 5.84583 9.56557 6.054 9.1 6.36215V6.03511H8.6H6.325H5.825V6.53511V14.1708V14.6708H6.325H8.69643H9.19643V14.1708V10.3923C9.19643 9.90327 9.2476 9.5257 9.38329 9.27983C9.44465 9.16865 9.52053 9.09005 9.61953 9.03528C9.72142 8.9789 9.87745 8.93154 10.1214 8.93154C10.3449 8.93154 10.4679 8.98288 10.5396 9.03307C10.6125 9.08409 10.676 9.16449 10.7278 9.2956C10.8427 9.58647 10.8536 9.99194 10.8536 10.4565V14.1708V14.6708H11.3536H13.725ZM1.13929 0.956543H14.8571C15.2055 0.956543 15.5 1.24649 15.5 1.61011V15.303C15.5 15.6666 15.2055 15.9565 14.8571 15.9565H1.13929C0.792919 15.9565 0.5 15.6686 0.5 15.303V1.61011C0.5 1.24444 0.79292 0.956543 1.13929 0.956543ZM1.775 4.11726C1.775 5.1497 2.6123 5.99226 3.65 5.99226C4.68686 5.99226 5.525 5.15411 5.525 4.11726C5.525 3.08397 4.68329 2.24226 3.65 2.24226C2.6123 2.24226 1.775 3.08482 1.775 4.11726Z" fill="#B4B4B4" stroke="#B4B4B4"/>
</svg>
