<svg width="13" height="9" viewBox="0 0 13 9" fill="none" xmlns="http://www.w3.org/2000/svg">
<path d="M12.7537 3.59821C12.8527 3.53363 13 3.59404 13 3.69613V7.95654C13 8.50863 12.4541 8.95654 11.7812 8.95654H1.21875C0.545898 8.95654 0 8.50863 0 7.95654V3.69821C0 3.59404 0.144727 3.53571 0.246289 3.60029C0.815039 3.96279 1.56914 4.42321 4.15898 5.96696C4.69473 6.28779 5.59863 6.96279 6.5 6.95863C7.40645 6.96488 8.32812 6.27529 8.84355 5.96696C11.4334 4.42321 12.185 3.96071 12.7537 3.59821ZM6.5 6.28988C7.08906 6.29821 7.93711 5.68154 8.36367 5.42738C11.733 3.42113 11.9895 3.24613 12.7664 2.74613C12.9137 2.65238 13 2.50654 13 2.35238V1.95654C13 1.40446 12.4541 0.956543 11.7812 0.956543H1.21875C0.545898 0.956543 0 1.40446 0 1.95654V2.35238C0 2.50654 0.0863281 2.65029 0.233594 2.74613C1.01055 3.24404 1.26699 3.42113 4.63633 5.42738C5.06289 5.68154 5.91094 6.29821 6.5 6.28988Z" fill="white"/>
</svg>
