<svg width="16" height="17" viewBox="0 0 16 17" fill="none" xmlns="http://www.w3.org/2000/svg">
<path d="M14.2857 0.456543H1.71429C0.767857 0.456543 0 1.2244 0 2.17083V14.7423C0 15.6887 0.767857 16.4565 1.71429 16.4565H14.2857C15.2321 16.4565 16 15.6887 16 14.7423V2.17083C16 1.2244 15.2321 0.456543 14.2857 0.456543ZM12.5393 6.12797C12.5464 6.22797 12.5464 6.33154 12.5464 6.43154C12.5464 9.52797 10.1893 13.0958 5.88214 13.0958C4.55357 13.0958 3.32143 12.7101 2.28571 12.0458C2.475 12.0673 2.65714 12.0744 2.85 12.0744C3.94643 12.0744 4.95357 11.703 5.75714 11.0744C4.72857 11.053 3.86429 10.378 3.56786 9.4494C3.92857 9.50297 4.25357 9.50297 4.625 9.40654C3.55357 9.18869 2.75 8.24583 2.75 7.10654V7.07797C3.06071 7.25297 3.425 7.36011 3.80714 7.3744C3.48587 7.1607 3.22249 6.87078 3.04053 6.53053C2.85856 6.19027 2.76365 5.81026 2.76429 5.4244C2.76429 4.98869 2.87857 4.58869 3.08214 4.24226C4.23571 5.66369 5.96786 6.59226 7.91071 6.69226C7.57857 5.10297 8.76786 3.81369 10.1964 3.81369C10.8714 3.81369 11.4786 4.09583 11.9071 4.55297C12.4357 4.45297 12.9429 4.25654 13.3929 3.98869C13.2179 4.53154 12.85 4.98869 12.3643 5.27797C12.8357 5.22797 13.2929 5.09583 13.7143 4.91369C13.3964 5.38154 12.9964 5.79583 12.5393 6.12797Z" fill="#B4B4B4"/>
</svg>
